classDiagram
    direction TB
    class Repository {
        +entities_type : string
        #use_logs : bool
        #logs_repository : Logs
        -map : array
        +disable_logs()
        +enable_logs()
        +get_enabled_logs()
        #__construct()
        +init_objects()
        +get_map()
        +get_name()
        +insert(obj)
        +insert_metadata(obj, prop, diffs)
        +maybe_add_slashes(value)
        +fetch_output(WP_Query, output)
        +parse_fetch_args(args)
        +get_default_properties(map)
        +get_mapped_property(entity, prop)
        +$get_collections_db_identifiers()
        +$get_entity_by_post(post)
        +$get_entity_by_post_type(post_type, post)
        +$get_repository(entity)
        +fetch_one(args)
        +trash(entity)
        +delete(entity, permanent)
        -delete_attachments(entity)
        +can_edit(entity, user)
        +can_read(entity, user)
        +can_delete(entity, user)
        +can_publish(entity, user)
        +unique_multidimensional_array(array, key)
        -insert_thumbnail(obj, diffs)
        +get_descendants_ids(id, depth)
        +get_capabilities()
        #sanitize_value(content)
    }
    class Terms {
        +entities_type : mixed
        #init()
        #_get_map()
        +get_default_properties(map)
        +insert(term)
        +get_mapped_property(entity, prop)
        +fetch(args, taxonomies)
        +update(object, args)
        +delete_child_terms(parentTerm, permanent)
        +delete(term, permanent)
        +term_exists(searched_term, taxonomy, parent, return_term)
        +register_post_type()
        +can_edit(term, user)
        +can_read(term, user)
        +can_delete(term, user)
        +can_publish(term, user)
    }
    Repository ..> Repository
    Repository ..> Terms
    Repository <|-- Terms
