classDiagram
    direction TB
    class Entity {
        #repository : Repository
        -errors : array
        #post_type : string|false
        #capability_type : string|false
        +WP_Post : WP_Post
        -validated : bool
        +cap : object
        +__construct(which)
        +get_repository()
        +get_date_i18n(date)
        +get_mapped_property(prop)
        #set_mapped_property(prop, value)
        +set(prop, value)
        +get(prop)
        +set_status(value)
        +validate()
        +validate_prop(prop)
        +get_errors()
        +$get_post_type()
        +$get_capability_type()
        +get_status()
        +get_db_identifier()
        +get_id()
        +add_error(type, message)
        +reset_errors()
        +get_validated()
        #set_validated(value)
        #set_as_valid()
        +_toArray()
        +_toJson()
        +can_read(user)
        +can_edit(user)
        +can_delete(user)
        +can_publish(user)
        +get_capabilities()
        +diff(which)
    }
    class Term {
        +WP_Term : mixed
        #term_id : mixed
        +post_type : mixed
        #repository : string
        +__construct(which, taxonomy)
        +__toString()
        +_toArray()
        +get_id()
        +get_term_id()
        +get_name()
        +get_parent()
        +get_description()
        +get_user()
        +get_taxonomy()
        +get_header_image_id()
        +get_cover_page_id()
        +get_header_image()
        +get_url()
        +get_thumbnail()
        +get_thumbnail_blurhash()
        +set_name(value)
        +set_parent(value)
        +set_description(value)
        +set_user(value)
        +set_taxonomy(value)
        +set_header_image_id(value)
        +set_cover_page_id(value)
        +validate()
        +_toHtml()
    }
    Entity ..> Entity
    Entity <|-- Term
